<svg xmlns="http://www.w3.org/2000/svg" viewBox="0 0 262.53 261.7"><defs><style>.cls-1,.cls-2{fill:#1d1d1b;}.cls-2{font-size:19.2px;font-family:HelveticaNeue, Helvetica Neue;}.cls-3{letter-spacing:-0.02em;}.cls-4{letter-spacing:0em;}</style></defs><g id="Layer_2" data-name="Layer 2"><g id="Layer_3" data-name="Layer 3"><path class="cls-1" d="M3.32,81.29A8.26,8.26,0,0,1,.92,81C.3,80.81,0,80.49,0,80c0-.92,1.26-1.6,3.78-2.06q4.35-.8,6-2.69t1.66-6.13V17.63q0-4-1.66-5.67t-6-2.46Q0,8.81,0,7.21c0-.46.3-.78.92-1A8.26,8.26,0,0,1,3.32,6Q6.41,6,8.3,6l3.61.11q1.71.06,4.23.06c1.45,0,2.62,0,3.5-.06L22.56,6C23.62,6,25.19,6,27.25,6a8.26,8.26,0,0,1,2.4.29c.61.19.92.51.92,1a1.64,1.64,0,0,1-.92,1.38,8.4,8.4,0,0,1-2.86.91C24,10,22.23,11,21.58,12.31a12.25,12.25,0,0,0-1,5.32V39q0,.47.06,1.32c0,.57.21.86.51.86a3,3,0,0,0,1.55-.69,8.55,8.55,0,0,0,1.54-1.37L47.17,15.8A6.54,6.54,0,0,0,48.49,14a4.07,4.07,0,0,0,.4-1.66,2.55,2.55,0,0,0-2.18-2.64A13.83,13.83,0,0,1,44,8.7a1.4,1.4,0,0,1-.8-1.26c0-.46.31-.78.92-1a8.26,8.26,0,0,1,2.4-.29h6.19Q56,6.18,60,6.07c2.67-.08,5.1-.15,7.27-.23s3.5-.12,3.95-.12a4.13,4.13,0,0,1,1.84.35,1,1,0,0,1,.68.91,1.63,1.63,0,0,1-.91,1.38A8.46,8.46,0,0,1,70,9.27a54.54,54.54,0,0,0-8.81,2.52,30.08,30.08,0,0,0-8.59,5q-4.12,3.44-7.61,6.7C42.61,25.7,40.3,28,38,30.28s-4.77,5-7.44,8c-.46.46-.27,1.14.57,2.06L58.85,69.84q2.52,2.75,4.06,4.24a12.19,12.19,0,0,0,3.44,2.34A25.37,25.37,0,0,0,71.44,78a17.52,17.52,0,0,1,2.87.86,1.29,1.29,0,0,1,.91,1.2c0,.46-.3.78-.91,1a8.38,8.38,0,0,1-2.41.29c-2.21,0-4.12-.06-5.72-.17s-3.17-.21-4.7-.29-3.36-.11-5.49-.11c-1.45,0-2.71,0-3.78,0s-2.9.06-5.5.06a7.93,7.93,0,0,1-2.4-.29c-.61-.18-.92-.51-.92-1,0-.84,1-1.49,3.09-1.94s3.21-1.3,3.21-2.29A2.27,2.27,0,0,0,49.17,74c-.34-.46-.74-.95-1.2-1.49L23.7,45.68c-.46-.46-.94-.89-1.43-1.31a2.16,2.16,0,0,0-1.2-.63c-.31,0-.46.3-.46.91v1.49c0,3.59.06,7,.17,10.25s.25,7.15.4,11.73a17.93,17.93,0,0,0,.75,4.47A7.28,7.28,0,0,0,24.1,76a9.21,9.21,0,0,0,4.41,2,11.35,11.35,0,0,1,2.86.8A1.41,1.41,0,0,1,32.29,80c0,.46-.31.78-.92,1a8.26,8.26,0,0,1-2.4.29,37.59,37.59,0,0,1-4.75-.23l-3-.4a27.2,27.2,0,0,0-3.49-.17c-1.84,0-3.46.05-4.87.17s-2.84.25-4.29.4A52.21,52.21,0,0,1,3.32,81.29Z"/><path class="cls-1" d="M87.82,82.32a7,7,0,0,1-4.18-1.6,14.23,14.23,0,0,1-3.55-3.9,8.17,8.17,0,0,1-1.43-4.35,8,8,0,0,1,1.94-5.72A17.43,17.43,0,0,1,86.79,63l11.67-4.81a5.9,5.9,0,0,0,2.69-1.6,7.77,7.77,0,0,0,.52-3l.23-7.33a7.47,7.47,0,0,0-1.66-5.15,6.21,6.21,0,0,0-5.1-2.17,10.82,10.82,0,0,0-3.43.57A9.07,9.07,0,0,0,88.85,41a2.19,2.19,0,0,0-.92,1.37,8.14,8.14,0,0,0-.23,2,10,10,0,0,0,.06,1,10,10,0,0,1,.06,1c0,.38-.48.9-1.44,1.54a17.65,17.65,0,0,1-3.2,1.72,8,8,0,0,1-2.92.75,1.41,1.41,0,0,1-.92-.29.91.91,0,0,1-.34-.74,8.09,8.09,0,0,1,1.2-4,14.54,14.54,0,0,1,3.38-3.95,34.44,34.44,0,0,1,5.72-4.24,33.39,33.39,0,0,1,6.07-2.86,16.32,16.32,0,0,1,5.27-1,8.84,8.84,0,0,1,6.81,2.92A10,10,0,0,1,110,43.51L109.45,71a5.61,5.61,0,0,0,1.09,3.9,3.75,3.75,0,0,0,3,1.49,6.09,6.09,0,0,0,4.23-1.26,1.6,1.6,0,0,1,.92-.58,1.21,1.21,0,0,1,.91.35,1.23,1.23,0,0,1,.35.91,3.61,3.61,0,0,1-1.26,2.52,15.71,15.71,0,0,1-4,2.92,8.65,8.65,0,0,1-4,1.09q-5.26,0-8.36-5.95h-.34a29.86,29.86,0,0,1-7.22,4.52A18.29,18.29,0,0,1,87.82,82.32Zm5.38-5.5a9.15,9.15,0,0,0,3.89-.74,10,10,0,0,0,2.86-2,4.75,4.75,0,0,0,1-1.55,10.81,10.81,0,0,0,.51-3.15l.23-5.61a4.23,4.23,0,0,0-.12-1.83.88.88,0,0,0-.91-.57,5.45,5.45,0,0,0-.8.11,10.2,10.2,0,0,0-1.49.46q-6.07,2.18-8.42,4.52t-2.34,4.3a5.67,5.67,0,0,0,5.61,6.06Z"/><path class="cls-1" d="M125.14,81.06a5.1,5.1,0,0,1-1.6-.23,1,1,0,0,1-.69-1,1.18,1.18,0,0,1,.74-1.14,15,15,0,0,1,1.89-.69q1.6-.57,3.27-1.32a3,3,0,0,0,1.66-3V49a19.38,19.38,0,0,0-.69-5.44c-.46-1.56-1.68-2.5-3.66-2.8a1.39,1.39,0,0,1-.75-.46,1.58,1.58,0,0,1-.28-1,1.22,1.22,0,0,1,.91-1.37,29.93,29.93,0,0,0,4.92-1.66,18.48,18.48,0,0,0,3.27-2c1-.72,2.12-1.51,3.49-2.35a3.34,3.34,0,0,0,.46-.28.88.88,0,0,1,.57-.17c.46,0,.69.26.69.8s-.1,1.62-.29,3.26a36.85,36.85,0,0,0-.29,4.06A2.41,2.41,0,0,0,139,41h.23a39.69,39.69,0,0,1,6.93-5.1,21.05,21.05,0,0,1,10.93-2.57A12.44,12.44,0,0,1,164,35.09a13.07,13.07,0,0,1,4.58,6.13h.35a35.1,35.1,0,0,1,8.35-5.61,23.16,23.16,0,0,1,10.31-2.29,9,9,0,0,1,6.3,2.29,14.56,14.56,0,0,1,3.83,6A22.45,22.45,0,0,1,199,49.23V73.62a3,3,0,0,0,1.6,3A31,31,0,0,0,203.91,78a15,15,0,0,1,1.89.69,1.17,1.17,0,0,1,.74,1.14,1,1,0,0,1-.51,1,4,4,0,0,1-1.78.29,29,29,0,0,1-3.55-.17c-.84-.12-1.62-.21-2.34-.29s-1.78-.11-3.15-.11-2.37,0-3.21.11-1.71.17-2.63.29a32,32,0,0,1-3.66.17,4,4,0,0,1-1.66-.29,1,1,0,0,1-.63-1,1.26,1.26,0,0,1,.74-1.26,8.53,8.53,0,0,1,1.89-.57,15.43,15.43,0,0,0,3.38-1.26A3.14,3.14,0,0,0,191,73.62v-24a11.25,11.25,0,0,0-1.26-5.21,11.86,11.86,0,0,0-3.32-4.07,7.26,7.26,0,0,0-4.58-1.6,20,20,0,0,0-5.32.68,13.15,13.15,0,0,0-4.64,2.41c-2.14,1.68-3.2,4.43-3.2,8.24V73.62a3.07,3.07,0,0,0,1.71,3.09A20.75,20.75,0,0,0,173.8,78a6.74,6.74,0,0,1,1.89.63,1.3,1.3,0,0,1,.74,1.2,1,1,0,0,1-.57,1,4,4,0,0,1-1.72.29,30.16,30.16,0,0,1-3.6-.17c-.88-.12-1.72-.21-2.52-.29s-1.89-.11-3.27-.11-2.36,0-3.2.11-1.72.17-2.64.29a31.79,31.79,0,0,1-3.66.17,4.15,4.15,0,0,1-1.6-.29,1,1,0,0,1-.69-1,1.16,1.16,0,0,1,.86-1.2q.85-.28,1.77-.63A33.79,33.79,0,0,0,159,76.65a3,3,0,0,0,1.66-3v-24a11.25,11.25,0,0,0-1.26-5.21,11.86,11.86,0,0,0-3.32-4.07,7.26,7.26,0,0,0-4.58-1.6,20,20,0,0,0-5.32.68,13.15,13.15,0,0,0-4.64,2.41q-3.09,2.3-3.09,8.24V73.62a3,3,0,0,0,1.6,3A31,31,0,0,0,143.34,78c.61.23,1.21.44,1.78.63a1.16,1.16,0,0,1,.86,1.2,1,1,0,0,1-.63,1,4.09,4.09,0,0,1-1.66.29,30.47,30.47,0,0,1-3.61-.17c-.88-.12-1.7-.21-2.46-.29s-1.83-.11-3.21-.11-2.34,0-3.15.11-1.64.17-2.51.29A30.59,30.59,0,0,1,125.14,81.06Z"/><path class="cls-1" d="M214.21,81.06a4.09,4.09,0,0,1-1.66-.29,1,1,0,0,1-.63-1,1.26,1.26,0,0,1,.86-1.26,13.66,13.66,0,0,1,1.78-.57,11.27,11.27,0,0,0,3.66-1.43,3.28,3.28,0,0,0,1.26-2.92V48.77a13.09,13.09,0,0,0-1.09-5.49,4.93,4.93,0,0,0-4.06-2.86,1.46,1.46,0,0,1-.86-.46,1.6,1.6,0,0,1-.29-1c0-.84.35-1.3,1-1.38a25.78,25.78,0,0,0,7.56-2.8,50.46,50.46,0,0,0,4.47-2.92,3.07,3.07,0,0,1,1.6-.8q.69,0,.69.57c0,.61-.1,1.81-.29,3.61s-.36,3.77-.52,5.95-.23,4.14-.23,5.9V73.62a3.23,3.23,0,0,0,1.32,2.86A11,11,0,0,0,232.42,78a13.05,13.05,0,0,1,1.77.57,1.25,1.25,0,0,1,.86,1.26c0,.84-.76,1.26-2.29,1.26a29.17,29.17,0,0,1-3.49-.17c-.88-.12-1.72-.21-2.52-.29s-1.89-.11-3.26-.11-2.37,0-3.21.11-1.68.17-2.52.29A28.88,28.88,0,0,1,214.21,81.06Zm9.16-59.42a5.67,5.67,0,0,1-5.72-5.73,5.68,5.68,0,0,1,1.66-4.18,5.54,5.54,0,0,1,4.06-1.66,5.68,5.68,0,0,1,5.84,5.84A5.52,5.52,0,0,1,227.55,20,5.64,5.64,0,0,1,223.37,21.64Z"/><path class="cls-1" d="M241.69,81.06a7.89,7.89,0,0,1-1.43-.17c-.57-.12-.86-.4-.86-.86a1.37,1.37,0,0,1,.86-1.32c.57-.26,1.16-.51,1.78-.74a31,31,0,0,0,3.32-1.32,3,3,0,0,0,1.6-3V15.91a11.63,11.63,0,0,0-1.2-5.55,5.55,5.55,0,0,0-4.07-2.8c-.61-.16-.91-.65-.91-1.49s.26-1.22.8-1.38a49.92,49.92,0,0,0,5.15-1.43c1.45-.49,2.8-1,4.06-1.54s2.5-1,3.73-1.49A1.77,1.77,0,0,1,255.2,0a.47.47,0,0,1,.4.29,1,1,0,0,1,.18.51c0,.69-.14,2.16-.41,4.41a109.51,109.51,0,0,0-.4,11.16V73.62a3,3,0,0,0,1.61,3A29.42,29.42,0,0,0,259.9,78c.61.23,1.2.48,1.77.74a1.37,1.37,0,0,1,.86,1.32c0,.46-.29.74-.86.86a7.89,7.89,0,0,1-1.43.17,29.17,29.17,0,0,1-3.49-.17c-.88-.12-1.72-.21-2.52-.29s-1.89-.11-3.26-.11-2.37,0-3.21.11-1.68.17-2.52.29A28.88,28.88,0,0,1,241.69,81.06Z"/><path class="cls-1" d="M3.58,225.29A9.11,9.11,0,0,1,1,225q-1-.31-1-1,0-1.49,4.07-2.22a16.08,16.08,0,0,0,7.16-2.84c1.65-1.32,2.47-3.41,2.47-6.3V156.78c0-2.88-.6-4.93-1.79-6.17s-3.35-2.14-6.48-2.71c-2.72-.5-4.07-1.32-4.07-2.47,0-.5.32-.84,1-1.05a8.83,8.83,0,0,1,2.6-.31q3.33,0,5.49.12c1.44.09,2.82.15,4.13.19s2.92.06,4.82.06,3.29,0,4.44-.06,2.39-.1,3.7-.19,3.09-.12,5.31-.12a8.76,8.76,0,0,1,2.59.31c.66.21,1,.55,1,1.05a1.76,1.76,0,0,1-1,1.48,9.07,9.07,0,0,1-3.08,1c-3.05.57-5.27,1.48-6.67,2.71s-2.1,3.29-2.1,6.17v55.79c0,2.89.87,5,2.6,6.3a16.87,16.87,0,0,0,7.15,2.84,11.77,11.77,0,0,1,3.09.86,1.51,1.51,0,0,1,1,1.36q0,.73-1,1a9.11,9.11,0,0,1-2.59.31c-2.22,0-4.06-.06-5.49-.19s-2.82-.23-4.14-.31-2.92-.12-4.81-.12q-3.09,0-5.37.12c-1.53.08-3.09.19-4.69.31S5.8,225.29,3.58,225.29Z"/><path class="cls-1" d="M44.43,225.29q-.49,0-1.11-.81a2.35,2.35,0,0,1-.61-1.29,4.35,4.35,0,0,1,.8-1.61l1.85-2.83c.7-1.07,1.33-2,1.91-2.72q3.09-4.44,5.93-8.58t5.61-8.27c1.85-2.75,3.77-5.68,5.74-8.76s4.08-6.4,6.3-9.94a1.42,1.42,0,0,0,.24-.8c0-.29-.45-.43-1.35-.43l-12.22-.37a5.44,5.44,0,0,0-3.21.74,10.85,10.85,0,0,0-2.22,1.6,17,17,0,0,0-1.42,1.61c-.46.57-.91,1.19-1.36,1.85S48.4,186,48,186.59l-1.29,1.79a1.61,1.61,0,0,1-1.92.25c-.78-.33-1.05-.82-.8-1.48s.56-1.83.93-3.27.69-2.95,1-4.51a21.79,21.79,0,0,0,.43-3.82,2,2,0,0,1,.75-1.61,2.16,2.16,0,0,1,1.11-.62A4.32,4.32,0,0,1,50,174.43a4,4,0,0,0,2.16.62c1,.08,2.07.13,3.15.13.9,0,1.76,0,2.59-.07s1.52-.06,2.1-.06q6.41,0,11.84-.12l11.11-.25a.83.83,0,0,1,.62.25,1.53,1.53,0,0,1,.37.62.56.56,0,0,1-.12.61c-.83,1.07-1.61,2.06-2.35,3s-1.52,2-2.34,3.2L55.05,218.75c-.33.57-.37,1-.12,1.35a1.42,1.42,0,0,0,1.23.5H70.72a6,6,0,0,0,2.78-.74,11.83,11.83,0,0,0,2.78-2.1,32.78,32.78,0,0,0,3.21-3.89q1.73-2.4,3.58-5.12a1.32,1.32,0,0,1,1.66-.5,1.37,1.37,0,0,1,1,1.36,15.06,15.06,0,0,1-.49,2.29q-.5,1.9-1.17,4.32c-.46,1.6-.87,3.1-1.24,4.5s-.64,2.35-.8,2.84a1.9,1.9,0,0,1-2,1.73c-1.81,0-4.87-.11-9.19-.31s-9.86-.31-16.6-.31a49.18,49.18,0,0,0-5.43.31C47,225.18,45.5,225.29,44.43,225.29Z"/><path class="cls-1" d="M100.59,226.4a7.48,7.48,0,0,1-4.5-1.73,15.38,15.38,0,0,1-3.83-4.2,8.88,8.88,0,0,1-1.54-4.69,8.63,8.63,0,0,1,2.1-6.17,18.84,18.84,0,0,1,6.66-4.07l12.59-5.19c1.65-.65,2.61-1.23,2.9-1.72a8.52,8.52,0,0,0,.56-3.21l.24-7.9A8,8,0,0,0,114,182a6.7,6.7,0,0,0-5.5-2.34,11.4,11.4,0,0,0-3.7.62,10,10,0,0,0-3.09,1.6,2.38,2.38,0,0,0-1,1.48,8.39,8.39,0,0,0-.25,2.1q0,.5.06,1.11t.06,1.11c0,.41-.51,1-1.54,1.67a19.85,19.85,0,0,1-3.46,1.85,8.42,8.42,0,0,1-3.14.8,1.47,1.47,0,0,1-1-.31,1,1,0,0,1-.37-.8,8.7,8.7,0,0,1,1.3-4.26A15.73,15.73,0,0,1,96,182.33a37.41,37.41,0,0,1,6.17-4.56,35.63,35.63,0,0,1,6.54-3.09,17.66,17.66,0,0,1,5.68-1.11,9.54,9.54,0,0,1,7.34,3.15,10.72,10.72,0,0,1,2.78,7.84l-.62,29.62a6,6,0,0,0,1.17,4.2,4.07,4.07,0,0,0,3.27,1.6,6.57,6.57,0,0,0,4.57-1.36c.41-.41.74-.62,1-.62a1.29,1.29,0,0,1,1.36,1.36,4,4,0,0,1-1.36,2.72,17.52,17.52,0,0,1-4.26,3.15,9.39,9.39,0,0,1-4.26,1.17q-5.67,0-9-6.42H116a32.09,32.09,0,0,1-7.77,4.88A19.88,19.88,0,0,1,100.59,226.4Zm5.8-5.93a9.84,9.84,0,0,0,4.2-.8,10.64,10.64,0,0,0,3.09-2.16,5.09,5.09,0,0,0,1-1.67,11.36,11.36,0,0,0,.55-3.39l.25-6a4.52,4.52,0,0,0-.13-2,1,1,0,0,0-1-.62,5.29,5.29,0,0,0-.87.12,11.8,11.8,0,0,0-1.6.5q-6.54,2.34-9.07,4.87t-2.53,4.63a6.11,6.11,0,0,0,6,6.54Z"/><path class="cls-1" d="M141.45,225a4.2,4.2,0,0,1-1.85-.31,1.06,1.06,0,0,1-.62-1,1.23,1.23,0,0,1,.74-1.29,15.81,15.81,0,0,1,2.1-.68,7.62,7.62,0,0,0,3.51-1.79,3.91,3.91,0,0,0,1.18-2.9V190.48a15.55,15.55,0,0,0-1-5.8,5.11,5.11,0,0,0-4.07-3.09,1.54,1.54,0,0,1-.87-.61,1.69,1.69,0,0,1-.37-1,1.34,1.34,0,0,1,1.11-1.48,37.54,37.54,0,0,0,6.73-2.9q3.52-1.92,5.49-3.15a7.83,7.83,0,0,1,1.18-.68,1.86,1.86,0,0,1,.67-.18c.42,0,.62.29.62.86,0,.25,0,.86-.06,1.85s-.08,2.14-.12,3.46-.11,2.63-.19,3.95c0,.16.08.24.25.24a25.92,25.92,0,0,1,4.38-4.32,23.77,23.77,0,0,1,4.94-3,12.08,12.08,0,0,1,4.87-1.11,7.53,7.53,0,0,1,4.26,1.11,3.32,3.32,0,0,1,1.67,2.84,6.67,6.67,0,0,1-.68,2.72,9.08,9.08,0,0,1-1.79,2.59,3.3,3.3,0,0,1-2.35,1.11,4.66,4.66,0,0,1-1.6-.31,14.78,14.78,0,0,1-1.85-.8l-2-.74a5.5,5.5,0,0,0-2-.37,9.4,9.4,0,0,0-5.74,2.1c-1.85,1.4-2.78,4.15-2.78,8.27V217a3.07,3.07,0,0,0,1.73,2.65,23,23,0,0,0,4.81,2,10.92,10.92,0,0,1,2.1.74,1.28,1.28,0,0,1,.74,1.23c0,.91-.82,1.36-2.47,1.36a37.24,37.24,0,0,1-5.61-.31,34.52,34.52,0,0,0-5.13-.31c-1.4,0-2.53.05-3.39.13s-1.77.18-2.72.31A32.45,32.45,0,0,1,141.45,225Z"/><path class="cls-1" d="M202.92,226.52a21,21,0,0,1-11.85-3.33,22.1,22.1,0,0,1-7.9-9.44,33.15,33.15,0,0,1-2.84-14.14,26.28,26.28,0,0,1,3.27-13,26.77,26.77,0,0,1,8.7-9.44,21.07,21.07,0,0,1,11.85-3.58,18.78,18.78,0,0,1,8.76,2,14.79,14.79,0,0,1,6,5.49,15.12,15.12,0,0,1,2.16,8.08q0,3.82-3.7,3.83H191.31a2.8,2.8,0,0,0-2.4.92,6.66,6.66,0,0,0-.68,3.65,22.62,22.62,0,0,0,2.59,10.8,21.07,21.07,0,0,0,6.91,7.77,16.65,16.65,0,0,0,9.51,2.9,15.56,15.56,0,0,0,6.72-1.42,16,16,0,0,0,5.37-4.13,5.22,5.22,0,0,1,.74-.8,1,1,0,0,1,.62-.19q1,0,1,1.23a8.72,8.72,0,0,1-2.22,5.19,19.26,19.26,0,0,1-4.45,4.07,21,21,0,0,1-5.68,2.66A22.38,22.38,0,0,1,202.92,226.52Zm-11.36-37.4h11.23c2,0,3.66,0,5.06-.12a33.45,33.45,0,0,0,4.08-.49,1,1,0,0,0,.8-.81,7.83,7.83,0,0,0,.18-1.91,7.62,7.62,0,0,0-3.14-6.11,11.55,11.55,0,0,0-7.47-2.53,11.13,11.13,0,0,0-5.68,1.67,15.76,15.76,0,0,0-4.69,4.13,8.24,8.24,0,0,0-1.85,4.94C190.08,188.71,190.57,189.12,191.56,189.12Z"/><path class="cls-1" d="M248.09,226.4q-6,0-9.44-3.7t-3.4-11V183.07a1.49,1.49,0,0,0-.74-1.41,7.44,7.44,0,0,0-3.21-.44h-.74c-.41,0-.76-.26-1.05-.8a3.43,3.43,0,0,1-.43-1.67,1.58,1.58,0,0,1,.37-.74,6.76,6.76,0,0,1,.5-.61q2.46-1.74,4.5-3.46t3.7-3.39a40.83,40.83,0,0,0,2.78-3l1-1.05A1.47,1.47,0,0,1,243,166a2.77,2.77,0,0,1,1.17.25c.37.16.51.53.43,1.11L244,173a1.85,1.85,0,0,0,.61,1.86,4.45,4.45,0,0,0,2.35.49h14.07c.33,0,.62.27.86.8a4.49,4.49,0,0,1,.37,1.91,6.33,6.33,0,0,1-.37,2.16c-.24.7-.53,1.05-.86,1.05H248.83a10.16,10.16,0,0,0-4,.5c-.62.33-.93,1.31-.93,3V209q0,4.95,2.1,7.78a7.08,7.08,0,0,0,6,2.84,21.49,21.49,0,0,0,5.55-.56,11.86,11.86,0,0,0,3.58-1.66.67.67,0,0,1,1.18.31,3.77,3.77,0,0,1,.18,1.17c0,.41-.68,1.23-2,2.47a22.39,22.39,0,0,1-5.3,3.45A15.91,15.91,0,0,1,248.09,226.4Z"/><text class="cls-2" transform="translate(155.32 252.47)">@kamiliza<tspan class="cls-3" x="84.32" y="0">r</tspan><tspan class="cls-4" x="90.37" y="0">et</tspan></text><text class="cls-2" transform="translate(155.37 110.92)">Art Di<tspan class="cls-3" x="48" y="0">r</tspan><tspan x="54.05" y="0">ection</tspan><tspan x="47.29" y="23.04">Design</tspan><tspan x="-24.88" y="46.08">Digital C</tspan><tspan class="cls-3" x="48" y="46.08">r</tspan><tspan class="cls-4" x="54.05" y="46.08">eation</tspan></text></g></g></svg>